<?xml version="1.0" encoding="utf-8"?>
<svg width="512" height="113.584" viewBox="0 0 512 113.584" fill="none" xmlns="http://www.w3.org/2000/svg">
  <defs>
    <clipPath id="clip_path_1">
      <rect width="373.224" height="79.929" />
    </clipPath>
  </defs>
  <g>
    <path d="M0 56.7918C0 25.4266 25.4177 0 56.7721 0C88.1264 0 113.544 25.4266 113.544 56.7918C113.544 88.1571 88.1264 113.584 56.7721 113.584C25.4177 113.584 0 88.1571 0 56.7918Z" fill="#EDEBEB" fill-rule="evenodd" />
    <path d="M6.23438 18.9203L6.23438 70.224L15.1963 70.224L15.1963 48.7933L41.4141 48.7933L41.4141 70.224L50.4688 70.224L50.4688 18.9203L41.4141 18.9203L41.4141 39.8314L15.1963 39.8314L15.1963 18.9203L6.23438 18.9203ZM84.2108 28.9584C84.7489 27.7338 85.5839 27.2142 86.7899 27.2142C88.0145 27.2142 88.8495 27.7338 89.2948 28.9584L104.881 70.224L114.845 70.224L97.5145 24.6166C95.6776 19.8295 92.1893 18.0111 86.8641 18.0111C81.4647 18.0111 77.9764 19.8295 76.0839 24.6166L58.0673 70.224L67.9384 70.224L84.2108 28.9584ZM126.687 18.9203C123.811 18.9203 122.438 20.2933 122.438 23.0951L122.438 66.0492C122.438 68.851 123.811 70.224 126.687 70.224L144.778 70.224C159.826 70.224 167.879 61.8558 167.879 44.6185C167.879 27.2885 159.752 18.9203 144.778 18.9203L126.687 18.9203ZM131.4 28.8099C131.4 28.1234 131.716 27.9008 132.384 27.9008L144.778 27.9008C154.742 27.9008 158.917 32.8363 158.917 44.5443C158.917 56.308 154.742 61.2621 144.778 61.2621L132.384 61.2621C131.716 61.2621 131.4 61.0209 131.4 60.3529L131.4 28.8099ZM178.302 18.9203L178.302 27.9008L206.412 27.9008C211.348 27.9008 213.556 30.9994 213.556 34.6547C213.556 38.3099 211.515 41.7982 206.412 41.7982L186.429 41.7982C180.807 41.7982 178.376 44.1547 178.376 49.9252L178.376 70.224L187.338 70.224L187.338 51.6879C187.338 50.7601 187.802 50.389 188.637 50.389L202.015 50.389L213.704 70.224L223.668 70.224L211.737 49.7025C219.568 47.4945 222.611 40.6664 222.611 34.2836C222.611 26.0638 217.656 18.9203 206.115 18.9203L178.302 18.9203ZM252.857 18.9203C237.957 18.9203 229.663 27.4369 229.663 44.6927C229.663 61.8558 237.883 70.224 252.857 70.224L259.852 70.224C274.807 70.224 283.026 61.8558 283.026 44.6927C283.026 27.4369 274.733 18.9203 259.852 18.9203L252.857 18.9203ZM259.852 27.9008C269.723 27.9008 273.972 32.9105 273.972 44.6185C273.972 56.4008 269.723 61.2621 259.852 61.2621L252.857 61.2621C242.893 61.2621 238.644 56.4008 238.644 44.6927C238.644 32.9105 242.967 27.9008 252.857 27.9008L259.852 27.9008ZM302.478 29.6449C302.478 27.808 303.536 26.6761 305.595 26.6761C307.191 26.6761 308.1 27.3627 308.787 28.8842L323.76 61.6332C325.894 67.4965 329.16 71.1332 336.303 71.1332C344.208 71.1332 348.085 66.6429 348.085 59.889L348.085 18.9203L339.031 18.9203L339.031 59.4994C339.031 61.2621 337.899 62.3939 335.988 62.3939C334.318 62.3939 333.335 61.4847 332.722 60.2601L317.749 27.5111C315.633 21.6664 312.442 18.0111 305.298 18.0111C297.32 18.0111 293.516 22.5013 293.516 29.181L293.516 70.224L302.478 70.224L302.478 29.6449Z" transform="translate(138.776 18.931)" fill="#EDEBEB" clip-path="url(#clip_path_1)" />
  </g>
</svg>